# xmcd
#
# Track frame offsets: 
#        150
#        57755
#        113198
#        160840
#
# Disc length: 2788 seconds
#
# Revision: 1
# Processed by: cddbd v1.5.2PL0 Copyright (c) Steve Scherf et al.
# Submitted via: ExactAudioCopy v1.0b3
#
DISCID=2a0ae204
DTITLE=Jazz at the Philharmonic All Stars - JATP - Roy Eldridge
DYEAR=1949
DGENRE=Jazz
TTITLE0=The Opener
TTITLE1=Lester Leaps In
TTITLE2=Embraceble You
TTITLE3=The Closer
EXTD=YEAR: 1949
EXTT0=
EXTT1=
EXTT2=
EXTT3=
PLAYORDER=
